HIERARCHY
ROOT mixamorig:Hips
{
	OFFSET -0.000008 104.274872 1.554316
	CHANNELS 6 Xposition Yposition Zposition Xrotation Yrotation Zrotation
	JOINT mixamorig:Spine
	{
		OFFSET -0.000005 10.181595 0.131519
		CHANNELS 6 Xposition Yposition Zposition Xrotation Yrotation Zrotation
		JOINT mixamorig:Spine1
		{
			OFFSET -0.000000 9.893959 -1.470707
			CHANNELS 6 Xposition Yposition Zposition Xrotation Yrotation Zrotation
			JOINT mixamorig:Spine2
			{
				OFFSET -0.000000 9.220757 -1.370641
				CHANNELS 6 Xposition Yposition Zposition Xrotation Yrotation Zrotation
				JOINT mixamorig:Neck
				{
					OFFSET 0.000001 16.740417 -2.049036
					CHANNELS 6 Xposition Yposition Zposition Xrotation Yrotation Zrotation
					JOINT mixamorig:Head
					{
						OFFSET 0.000000 9.617874 1.685006
						CHANNELS 6 Xposition Yposition Zposition Xrotation Yrotation Zrotation
						JOINT mixamorig:HeadTop_End
						{
							OFFSET 0.000002 22.037354 7.501101
							CHANNELS 6 Xposition Yposition Zposition Xrotation Yrotation Zrotation
							End Site
							{
								OFFSET 0.000168 2310.654297 -282.823242
							}
						}
					}
				}
				JOINT mixamorig:RightShoulder
				{
					OFFSET -4.569970 11.014908 -2.160885
					CHANNELS 6 Xposition Yposition Zposition Xrotation Yrotation Zrotation
					JOINT mixamorig:RightArm
					{
						OFFSET -10.592851 -0.524811 -2.232101
						CHANNELS 6 Xposition Yposition Zposition Xrotation Yrotation Zrotation
						JOINT mixamorig:RightForeArm
						{
							OFFSET -27.841511 0.000031 -0.000004
							CHANNELS 6 Xposition Yposition Zposition Xrotation Yrotation Zrotation
							JOINT mixamorig:RightHand
							{
								OFFSET -28.328831 -0.000015 0.000015
								CHANNELS 6 Xposition Yposition Zposition Xrotation Yrotation Zrotation
								JOINT mixamorig:RightHandThumb1
								{
									OFFSET -2.464806 -1.573990 2.681852
									CHANNELS 6 Xposition Yposition Zposition Xrotation Yrotation Zrotation
									JOINT mixamorig:RightHandThumb2
									{
										OFFSET -3.215179 -1.872803 1.924282
										CHANNELS 6 Xposition Yposition Zposition Xrotation Yrotation Zrotation
										JOINT mixamorig:RightHandThumb3
										{
											OFFSET -2.654831 -1.527969 1.512609
											CHANNELS 6 Xposition Yposition Zposition Xrotation Yrotation Zrotation
											JOINT mixamorig:RightHandThumb4
											{
												OFFSET -2.018814 -1.152008 1.108052
												CHANNELS 6 Xposition Yposition Zposition Xrotation Yrotation Zrotation
												End Site
												{
													OFFSET -188.809540 -114.533607 132.431396
												}
											}
										}
									}
								}
								JOINT mixamorig:RightHandIndex1
								{
									OFFSET -9.108284 -0.517868 2.259835
									CHANNELS 6 Xposition Yposition Zposition Xrotation Yrotation Zrotation
									JOINT mixamorig:RightHandIndex2
									{
										OFFSET -3.699989 0.000000 0.001215
										CHANNELS 6 Xposition Yposition Zposition Xrotation Yrotation Zrotation
										JOINT mixamorig:RightHandIndex3
										{
											OFFSET -2.850006 0.000031 -0.000522
											CHANNELS 6 Xposition Yposition Zposition Xrotation Yrotation Zrotation
											JOINT mixamorig:RightHandIndex4
											{
												OFFSET -2.772186 -0.000015 -0.000020
												CHANNELS 6 Xposition Yposition Zposition Xrotation Yrotation Zrotation
												End Site
												{
													OFFSET -277.218445 0.000000 -0.050231
												}
											}
										}
									}
								}
								JOINT mixamorig:RightHandMiddle1
								{
									OFFSET -9.532516 -0.000031 -0.000023
									CHANNELS 6 Xposition Yposition Zposition Xrotation Yrotation Zrotation
									JOINT mixamorig:RightHandMiddle2
									{
										OFFSET -3.700005 -0.000015 0.003713
										CHANNELS 6 Xposition Yposition Zposition Xrotation Yrotation Zrotation
										JOINT mixamorig:RightHandMiddle3
										{
											OFFSET -2.949974 0.000015 -0.002054
											CHANNELS 6 Xposition Yposition Zposition Xrotation Yrotation Zrotation
											JOINT mixamorig:RightHandMiddle4
											{
												OFFSET -2.946640 0.000000 -0.000156
												CHANNELS 6 Xposition Yposition Zposition Xrotation Yrotation Zrotation
												End Site
												{
													OFFSET -294.664337 0.000000 -0.113670
												}
											}
										}
									}
								}
								JOINT mixamorig:RightHandRing1
								{
									OFFSET -9.103600 -0.043076 -1.865134
									CHANNELS 6 Xposition Yposition Zposition Xrotation Yrotation Zrotation
									JOINT mixamorig:RightHandRing2
									{
										OFFSET -3.379288 0.000000 -0.001055
										CHANNELS 6 Xposition Yposition Zposition Xrotation Yrotation Zrotation
										JOINT mixamorig:RightHandRing3
										{
											OFFSET -2.889687 -0.000015 0.000379
											CHANNELS 6 Xposition Yposition Zposition Xrotation Yrotation Zrotation
											JOINT mixamorig:RightHandRing4
											{
												OFFSET -2.638809 -0.000015 0.000941
												CHANNELS 6 Xposition Yposition Zposition Xrotation Yrotation Zrotation
												End Site
												{
													OFFSET -263.880371 0.000000 0.516020
												}
											}
										}
									}
								}
								JOINT mixamorig:RightHandPinky1
								{
									OFFSET -8.076683 -0.486710 -3.806280
									CHANNELS 6 Xposition Yposition Zposition Xrotation Yrotation Zrotation
									JOINT mixamorig:RightHandPinky2
									{
										OFFSET -3.600014 -0.000015 -0.003747
										CHANNELS 6 Xposition Yposition Zposition Xrotation Yrotation Zrotation
										JOINT mixamorig:RightHandPinky3
										{
											OFFSET -2.099983 0.000000 -0.005739
											CHANNELS 6 Xposition Yposition Zposition Xrotation Yrotation Zrotation
											JOINT mixamorig:RightHandPinky4
											{
												OFFSET -2.115768 -0.000031 -0.003680
												CHANNELS 6 Xposition Yposition Zposition Xrotation Yrotation Zrotation
												End Site
												{
													OFFSET -211.577087 0.000000 -0.350686
												}
											}
										}
									}
								}
							}
						}
					}
				}
				JOINT mixamorig:LeftShoulder
				{
					OFFSET 4.570447 11.014725 -2.160855
					CHANNELS 6 Xposition Yposition Zposition Xrotation Yrotation Zrotation
					JOINT mixamorig:LeftArm
					{
						OFFSET 10.592371 -0.524597 -2.232119
						CHANNELS 6 Xposition Yposition Zposition Xrotation Yrotation Zrotation
						JOINT mixamorig:LeftForeArm
						{
							OFFSET 27.841532 -0.000031 0.000026
							CHANNELS 6 Xposition Yposition Zposition Xrotation Yrotation Zrotation
							JOINT mixamorig:LeftHand
							{
								OFFSET 28.328846 -0.000061 0.000022
								CHANNELS 6 Xposition Yposition Zposition Xrotation Yrotation Zrotation
								JOINT mixamorig:LeftHandThumb1
								{
									OFFSET 2.466141 -1.576172 2.681732
									CHANNELS 6 Xposition Yposition Zposition Xrotation Yrotation Zrotation
									JOINT mixamorig:LeftHandThumb2
									{
										OFFSET 3.217812 -1.872070 1.916482
										CHANNELS 6 Xposition Yposition Zposition Xrotation Yrotation Zrotation
										JOINT mixamorig:LeftHandThumb3
										{
											OFFSET 2.656029 -1.528778 1.514513
											CHANNELS 6 Xposition Yposition Zposition Xrotation Yrotation Zrotation
											JOINT mixamorig:LeftHandThumb4
											{
												OFFSET 2.020889 -1.154053 1.115139
												CHANNELS 6 Xposition Yposition Zposition Xrotation Yrotation Zrotation
												End Site
												{
													OFFSET 190.885437 -115.081749 130.048782
												}
											}
										}
									}
								}
								JOINT mixamorig:LeftHandIndex1
								{
									OFFSET 9.109314 -0.518021 2.259871
									CHANNELS 6 Xposition Yposition Zposition Xrotation Yrotation Zrotation
									JOINT mixamorig:LeftHandIndex2
									{
										OFFSET 3.699989 0.000000 -0.000322
										CHANNELS 6 Xposition Yposition Zposition Xrotation Yrotation Zrotation
										JOINT mixamorig:LeftHandIndex3
										{
											OFFSET 2.850006 0.000000 0.000352
											CHANNELS 6 Xposition Yposition Zposition Xrotation Yrotation Zrotation
											JOINT mixamorig:LeftHandIndex4
											{
												OFFSET 2.774864 -0.000031 -0.000027
												CHANNELS 6 Xposition Yposition Zposition Xrotation Yrotation Zrotation
												End Site
												{
													OFFSET 277.486267 0.000000 -0.009857
												}
											}
										}
									}
								}
								JOINT mixamorig:LeftHandMiddle1
								{
									OFFSET 9.533394 0.000061 0.000044
									CHANNELS 6 Xposition Yposition Zposition Xrotation Yrotation Zrotation
									JOINT mixamorig:LeftHandMiddle2
									{
										OFFSET 3.699989 -0.000015 -0.000231
										CHANNELS 6 Xposition Yposition Zposition Xrotation Yrotation Zrotation
										JOINT mixamorig:LeftHandMiddle3
										{
											OFFSET 2.949997 -0.000015 -0.000059
											CHANNELS 6 Xposition Yposition Zposition Xrotation Yrotation Zrotation
											JOINT mixamorig:LeftHandMiddle4
											{
												OFFSET 2.952896 0.000031 0.000063
												CHANNELS 6 Xposition Yposition Zposition Xrotation Yrotation Zrotation
												End Site
												{
													OFFSET 295.289337 0.000000 0.022810
												}
											}
										}
									}
								}
								JOINT mixamorig:LeftHandRing1
								{
									OFFSET 9.104523 -0.042999 -1.865074
									CHANNELS 6 Xposition Yposition Zposition Xrotation Yrotation Zrotation
									JOINT mixamorig:LeftHandRing2
									{
										OFFSET 3.150009 -0.000031 0.000043
										CHANNELS 6 Xposition Yposition Zposition Xrotation Yrotation Zrotation
										JOINT mixamorig:LeftHandRing3
										{
											OFFSET 2.949982 -0.000015 0.000040
											CHANNELS 6 Xposition Yposition Zposition Xrotation Yrotation Zrotation
											JOINT mixamorig:LeftHandRing4
											{
												OFFSET 2.644348 0.000000 0.000057
												CHANNELS 6 Xposition Yposition Zposition Xrotation Yrotation Zrotation
												End Site
												{
													OFFSET 264.434631 0.000000 0.012105
												}
											}
										}
									}
								}
								JOINT mixamorig:LeftHandPinky1
								{
									OFFSET 8.077789 -0.486847 -3.806259
									CHANNELS 6 Xposition Yposition Zposition Xrotation Yrotation Zrotation
									JOINT mixamorig:LeftHandPinky2
									{
										OFFSET 3.599953 0.000031 0.014727
										CHANNELS 6 Xposition Yposition Zposition Xrotation Yrotation Zrotation
										JOINT mixamorig:LeftHandPinky3
										{
											OFFSET 2.100021 0.000015 0.007705
											CHANNELS 6 Xposition Yposition Zposition Xrotation Yrotation Zrotation
											JOINT mixamorig:LeftHandPinky4
											{
												OFFSET 2.125504 0.000031 0.007517
												CHANNELS 6 Xposition Yposition Zposition Xrotation Yrotation Zrotation
												End Site
												{
													OFFSET 212.550781 0.000000 0.625752
												}
											}
										}
									}
								}
							}
						}
					}
				}
			}
		}
	}
	JOINT mixamorig:RightUpLeg
	{
		OFFSET -8.207787 -6.751648 -1.599560
		CHANNELS 6 Xposition Yposition Zposition Xrotation Yrotation Zrotation
		JOINT mixamorig:RightLeg
		{
			OFFSET -0.000002 -44.370117 0.345942
			CHANNELS 6 Xposition Yposition Zposition Xrotation Yrotation Zrotation
			JOINT mixamorig:RightFoot
			{
				OFFSET 0.000003 -44.423679 -3.043532
				CHANNELS 6 Xposition Yposition Zposition Xrotation Yrotation Zrotation
				JOINT mixamorig:RightToeBase
				{
					OFFSET -0.000002 -8.728671 10.710558
					CHANNELS 6 Xposition Yposition Zposition Xrotation Yrotation Zrotation
					JOINT mixamorig:RightToe_End
					{
						OFFSET -0.000001 -0.000679 9.278119
						CHANNELS 6 Xposition Yposition Zposition Xrotation Yrotation Zrotation
						End Site
						{
							OFFSET 0.000000 -0.067690 927.812134
						}
					}
				}
			}
		}
	}
	JOINT mixamorig:LeftUpLeg
	{
		OFFSET 8.207793 -6.751686 -1.599556
		CHANNELS 6 Xposition Yposition Zposition Xrotation Yrotation Zrotation
		JOINT mixamorig:LeftLeg
		{
			OFFSET -0.000004 -44.370014 0.346954
			CHANNELS 6 Xposition Yposition Zposition Xrotation Yrotation Zrotation
			JOINT mixamorig:LeftFoot
			{
				OFFSET -0.000001 -44.423672 -3.044401
				CHANNELS 6 Xposition Yposition Zposition Xrotation Yrotation Zrotation
				JOINT mixamorig:LeftToeBase
				{
					OFFSET -0.000002 -8.728669 10.710558
					CHANNELS 6 Xposition Yposition Zposition Xrotation Yrotation Zrotation
					JOINT mixamorig:LeftToe_End
					{
						OFFSET -0.000003 -0.000679 9.278133
						CHANNELS 6 Xposition Yposition Zposition Xrotation Yrotation Zrotation
						End Site
						{
							OFFSET 0.000000 -0.068021 927.813477
						}
					}
				}
			}
		}
	}
}
MOTION
Frames: 3
Frame Time: 0.033333
0.000006 104.270477 1.554256 0.000010 0.000003 -0.000113 -0.000005 10.181587 0.131522 0.000001 -0.000003 0.000084 -0.000000 9.893967 -1.470711 0.000001 0.000000 -0.000000 -0.000000 9.220802 -1.370642 0.000000 -0.000000 -0.000000 0.000001 16.740433 -2.049030 0.000000 -0.000000 -0.000000 0.000000 9.617859 1.685014 0.000000 0.000000 0.000000 0.000002 22.037384 7.501101 0.000000 -0.000000 0.000000 -4.569968 11.014880 -2.160881 0.000008 0.000001 -0.000038 -10.592871 -0.524774 -2.231884 78.255397 31.380297 -25.743149 -27.841518 0.000008 0.000531 -47.625488 106.761642 61.405340 -28.328819 0.000021 0.000023 -0.000320 -0.000045 0.000006 -2.464414 -1.573871 2.682363 -38.534664 -155.769444 10.345081 -3.215229 -1.872491 1.924623 146.680198 33.576701 31.732700 -2.654962 -1.527865 1.513063 148.924215 27.660116 -26.884309 -2.018826 -1.152002 1.108065 -0.000004 -0.000001 0.000002 -9.108377 -0.517555 2.260156 110.312124 15.201109 -21.767613 -3.700043 0.000324 0.001550 104.644611 12.197767 -15.724654 -2.850090 0.000368 -0.000214 104.667390 8.779523 -11.356992 -2.772173 -0.000018 -0.000019 0.000001 -0.000002 -0.000002 -9.532578 0.000263 0.000283 104.780580 15.280694 -19.938357 -3.700053 0.000334 0.004010 103.533408 11.739938 -14.749828 -2.950040 0.000329 -0.001783 104.365304 9.382397 -12.061484 -2.946640 0.000004 -0.000156 -0.000000 0.000001 -0.000000 -9.103703 -0.042763 -1.864792 107.074799 17.895666 -23.996405 -3.379351 0.000307 -0.000743 106.880651 10.485371 -14.130861 -2.889751 0.000358 0.000700 109.605056 5.360607 -7.657598 -2.638813 -0.000018 0.000945 0.000000 0.000004 0.000001 -8.076770 -0.486407 -3.805942 104.433224 20.172171 -25.649068 -3.600059 0.000281 -0.003436 106.713093 9.739437 -12.582975 -2.100000 0.000329 -0.005407 107.616269 3.451974 -4.426034 -2.115770 -0.000039 -0.003677 -0.000001 -0.000001 -0.000002 4.570446 11.014691 -2.160851 -0.000018 0.000010 -0.000021 10.592407 -0.524470 -2.232374 73.276913 -15.584004 11.622021 27.841829 0.000077 -0.000185 106.157102 -71.539709 87.588222 28.328815 -0.000029 0.000025 0.000025 -0.000089 0.000000 2.465895 -1.576102 2.681902 -49.986804 170.207303 16.430251 3.217783 -1.871726 1.916372 155.189520 -30.924522 0.677823 2.656104 -1.528654 1.514454 138.419507 -28.250718 45.606560 2.020887 -1.154087 1.115148 -0.000003 0.000006 0.000004 9.109365 -0.517881 2.259749 77.426861 -17.504125 14.059019 3.700044 0.000113 -0.000460 74.530990 -17.891819 13.673296 2.850049 0.000140 0.000215 71.503338 -14.631370 10.560364 2.774877 -0.000033 -0.000032 -0.000000 0.000001 0.000001 9.533445 0.000193 -0.000098 78.966713 -15.164702 12.509551 3.700054 0.000143 -0.000375 80.221118 -15.110214 12.747813 2.950052 0.000124 -0.000201 78.098186 -18.579038 15.119119 2.952868 -0.000029 0.000061 0.000000 0.000001 0.000002 9.104583 -0.042866 -1.865221 78.607397 -13.950620 11.440145 3.150036 0.000180 -0.000084 81.476876 -13.098914 11.296407 2.950023 0.000144 -0.000069 80.630137 -15.224319 12.940873 2.644326 0.000016 0.000059 0.000000 -0.000000 -0.000000 8.077832 -0.486740 -3.806394 72.137268 -16.283897 12.332780 3.599995 0.000157 0.014549 72.245739 -12.398509 9.438128 2.100023 0.000158 0.007546 74.671624 -12.249503 9.731094 2.125498 0.000000 0.007517 0.000001 -0.000002 -0.000001 -8.207786 -6.751667 -1.599560 -0.077001 -0.000003 0.000080 -0.000002 -44.370110 0.345938 0.153719 -0.000000 -0.000000 0.000000 -44.423679 -3.043532 -0.076700 0.000000 -0.000002 -0.000006 -8.728667 10.710559 -0.000009 -0.000000 -0.000000 -0.000001 -0.000679 9.278123 0.000000 -0.000000 -0.000000 8.207792 -6.751710 -1.599556 -0.074518 -0.000003 0.000081 -0.000002 -44.370014 0.346960 0.148822 0.000002 0.000000 -0.000001 -44.423664 -3.044403 -0.074314 0.000000 -0.000002 -0.000004 -8.728671 10.710558 0.000007 -0.000000 -0.000000 0.000000 -0.000680 9.278137 -0.000000 0.000000 -0.000001 
0.000006 104.270477 1.554256 0.000010 0.000003 -0.000113 -0.000005 10.181587 0.131522 0.000001 -0.000003 0.000084 -0.000000 9.893967 -1.470711 0.000001 0.000000 -0.000000 -0.000000 9.220802 -1.370642 0.000000 -0.000000 -0.000000 0.000001 16.740433 -2.049030 0.000000 -0.000000 -0.000000 0.000000 9.617859 1.685014 0.000000 0.000000 0.000000 0.000002 22.037384 7.501101 0.000000 -0.000000 0.000000 -4.569968 11.014880 -2.160881 0.000008 0.000001 -0.000038 -10.592865 -0.524786 -2.231870 78.183324 34.544696 -28.354434 -27.841511 0.000017 0.000543 -46.766158 105.220731 58.998156 -28.328825 -0.000006 0.000026 -0.000324 -0.000044 0.000009 -2.464382 -1.573830 2.682325 -44.275615 -155.234408 -2.407892 -3.215259 -1.872532 1.924629 148.131749 32.764199 20.949071 -2.654958 -1.527867 1.513061 146.372812 27.851631 -28.061957 -2.018831 -1.151993 1.108060 -0.000005 -0.000001 0.000004 -9.108345 -0.517552 2.260159 109.107709 14.324201 -20.085105 -3.700076 0.000327 0.001542 104.482196 10.973177 -14.109272 -2.850074 0.000383 -0.000219 104.184058 8.461189 -10.851827 -2.772160 -0.000013 -0.000022 0.000000 -0.000001 -0.000001 -9.532561 0.000271 0.000290 104.713787 13.970493 -18.232505 -3.700066 0.000340 0.003999 102.968640 10.069559 -12.517231 -2.950050 0.000329 -0.001751 104.938815 10.162625 -13.196501 -2.946617 0.000015 -0.000152 -0.000000 -0.000003 0.000000 -9.103682 -0.042758 -1.864798 105.652843 16.339855 -21.382974 -3.379333 0.000317 -0.000767 104.883183 7.544687 -9.823902 -2.889740 0.000337 0.000701 111.235867 6.256218 -9.198999 -2.638800 -0.000002 0.000934 0.000002 0.000001 -0.000001 -8.076747 -0.486412 -3.805940 105.664789 18.695794 -24.301174 -3.600043 0.000298 -0.003438 105.014172 6.556575 -8.088940 -2.100010 0.000329 -0.005400 107.766984 3.617004 -4.663480 -2.115764 -0.000031 -0.003680 -0.000000 -0.000002 -0.000002 4.570446 11.014691 -2.160851 -0.000018 0.000010 -0.000021 10.592402 -0.524481 -2.232359 73.162439 -14.166967 10.538307 27.841833 0.000049 -0.000202 107.069513 -73.321234 90.408482 28.328823 -0.000013 0.000019 0.000023 -0.000089 0.000001 2.466109 -1.576178 2.681899 -27.004461 160.538665 -37.465784 3.217851 -1.871809 1.916407 161.842589 -25.828939 26.286914 2.656100 -1.528684 1.514490 137.031435 -28.432044 56.367557 2.020888 -1.154074 1.115146 -0.000001 0.000003 0.000001 9.109386 -0.517883 2.259737 77.339523 -19.311735 15.497156 3.700026 0.000144 -0.000476 75.134055 -13.628419 10.516252 2.850043 0.000158 0.000209 74.878715 -11.427047 8.760096 2.774894 -0.000044 -0.000019 -0.000002 0.000002 0.000000 9.533463 0.000185 -0.000089 77.826310 -18.863313 15.268403 3.700044 0.000149 -0.000369 79.891049 -12.974746 10.877683 2.950062 0.000156 -0.000203 80.511517 -13.249297 11.235315 2.952849 -0.000016 0.000062 -0.000000 -0.000001 0.000001 9.104603 -0.042875 -1.865221 78.659853 -18.735646 15.397907 3.150046 0.000185 -0.000096 82.140565 -12.383752 10.803432 2.949995 0.000157 -0.000092 83.785562 -11.054180 9.923412 2.644325 0.000047 0.000060 0.000001 0.000002 -0.000000 8.077848 -0.486747 -3.806414 72.174486 -21.198303 15.991158 3.599996 0.000145 0.014572 73.828724 -16.649127 12.947896 2.100043 0.000169 0.007545 77.857839 -12.789151 10.740852 2.125515 0.000001 0.007525 0.000001 -0.000004 -0.000001 -8.207786 -6.751667 -1.599560 -0.077001 -0.000003 0.000080 -0.000002 -44.370110 0.345938 0.153719 -0.000000 -0.000000 0.000000 -44.423679 -3.043532 -0.076700 0.000000 -0.000002 -0.000006 -8.728667 10.710559 -0.000009 -0.000000 -0.000000 -0.000001 -0.000679 9.278123 0.000000 -0.000000 -0.000000 8.207792 -6.751710 -1.599556 -0.074518 -0.000003 0.000081 -0.000002 -44.370014 0.346960 0.148822 0.000002 0.000000 -0.000001 -44.423664 -3.044403 -0.074314 0.000000 -0.000002 -0.000004 -8.728671 10.710558 0.000007 -0.000000 -0.000000 0.000000 -0.000680 9.278137 -0.000000 0.000000 -0.000001 
0.000006 104.270477 1.554256 0.000010 0.000003 -0.000113 -0.000005 10.181587 0.131522 0.000001 -0.000003 0.000084 -0.000000 9.893967 -1.470711 0.000001 0.000000 -0.000000 -0.000000 9.220802 -1.370642 0.000000 -0.000000 -0.000000 0.000001 16.740433 -2.049030 0.000000 -0.000000 -0.000000 0.000000 9.617859 1.685014 0.000000 0.000000 0.000000 0.000002 22.037384 7.501101 0.000000 -0.000000 0.000000 -4.569968 11.014880 -2.160881 0.000008 0.000001 -0.000038 -10.592855 -0.524813 -2.231832 77.963092 41.795164 -34.340620 -27.841518 -0.000001 0.000559 -46.730457 103.431208 57.386935 -28.328833 -0.000004 0.000026 -0.000320 -0.000046 0.000009 -2.464378 -1.573820 2.682316 -44.415586 -154.804776 -2.793966 -3.215248 -1.872506 1.924614 147.498796 32.858063 23.201958 -2.654960 -1.527863 1.513059 146.373030 27.922025 -27.252409 -2.018834 -1.152011 1.108060 -0.000004 -0.000001 0.000002 -9.108363 -0.517559 2.260182 109.596396 14.057792 -19.891703 -3.700042 0.000331 0.001548 105.204707 11.011978 -14.343051 -2.850061 0.000374 -0.000229 104.877596 8.567670 -11.125482 -2.772178 0.000001 -0.000016 -0.000002 0.000000 -0.000000 -9.532577 0.000278 0.000279 104.679944 13.537525 -17.665217 -3.700059 0.000332 0.004006 103.441501 9.648997 -12.092919 -2.950052 0.000339 -0.001775 105.190514 9.838432 -12.834477 -2.946619 0.000015 -0.000151 0.000002 -0.000000 0.000001 -9.103695 -0.042757 -1.864818 105.830393 15.570010 -20.446725 -3.379309 0.000319 -0.000751 105.645364 6.700048 -8.848861 -2.889747 0.000348 0.000705 111.473421 5.836205 -8.624896 -2.638824 -0.000014 0.000935 0.000001 0.000002 0.000003 -8.076743 -0.486394 -3.805944 105.644462 17.972495 -23.357375 -3.600027 0.000283 -0.003452 105.740706 5.376249 -6.647228 -2.099979 0.000335 -0.005419 108.422423 2.734817 -3.501139 -2.115785 -0.000056 -0.003680 -0.000001 -0.000003 -0.000005 4.570446 11.014691 -2.160851 -0.000018 0.000010 -0.000021 10.592447 -0.524471 -2.232394 73.120870 -29.039526 21.744059 27.841824 0.000025 -0.000187 108.194206 -75.763989 94.119706 28.328823 -0.000028 0.000021 0.000022 -0.000092 0.000001 2.466112 -1.576158 2.681903 -24.022289 160.304786 -43.309205 3.217847 -1.871794 1.916391 161.977103 -25.645065 27.008588 2.656121 -1.528681 1.514480 136.219599 -28.716356 56.793614 2.020884 -1.154077 1.115147 0.000001 0.000000 -0.000001 9.109369 -0.517882 2.259740 77.943653 -19.320215 15.670197 3.700039 0.000143 -0.000467 76.377498 -13.033908 10.282837 2.850042 0.000167 0.000197 76.264547 -10.722600 8.425767 2.774887 -0.000045 -0.000029 -0.000001 -0.000001 -0.000000 9.533451 0.000175 -0.000085 78.614651 -18.682838 15.332863 3.700037 0.000157 -0.000386 81.021849 -12.147890 10.387481 2.950057 0.000163 -0.000211 81.503500 -12.590777 10.863356 2.952872 -0.000030 0.000062 0.000001 0.000000 0.000000 9.104576 -0.042871 -1.865222 79.098686 -18.687987 15.477415 3.150039 0.000176 -0.000100 82.962947 -12.137624 10.741831 2.950034 0.000166 -0.000077 84.048695 -10.844467 9.779802 2.644332 0.000044 0.000055 -0.000004 0.000001 0.000000 8.077832 -0.486747 -3.806399 72.545468 -20.408791 15.506761 3.600009 0.000154 0.014574 74.456322 -16.607786 13.062738 2.100034 0.000155 0.007539 78.169486 -13.011308 10.982573 2.125519 -0.000015 0.007511 -0.000000 -0.000000 -0.000000 -8.207786 -6.751667 -1.599560 -0.077001 -0.000003 0.000080 -0.000002 -44.370110 0.345938 0.153719 -0.000000 -0.000000 0.000000 -44.423679 -3.043532 -0.076700 0.000000 -0.000002 -0.000006 -8.728667 10.710559 -0.000009 -0.000000 -0.000000 -0.000001 -0.000679 9.278123 0.000000 -0.000000 -0.000000 8.207792 -6.751710 -1.599556 -0.074518 -0.000003 0.000081 -0.000002 -44.370014 0.346960 0.148822 0.000002 0.000000 -0.000001 -44.423664 -3.044403 -0.074314 0.000000 -0.000002 -0.000004 -8.728671 10.710558 0.000007 -0.000000 -0.000000 0.000000 -0.000680 9.278137 -0.000000 0.000000 -0.000001 
